<svg width="400" height="518" viewBox="0 0 400 518" fill="none" xmlns="http://www.w3.org/2000/svg">
  <!-- Background -->
  <rect width="400" height="518" fill="#ffffff"/>
  
  <!-- Header Section -->
  <rect x="30" y="30" width="200" height="16" rx="2" fill="#1a1a1a"/>
  <rect x="30" y="54" width="140" height="8" rx="1" fill="#666666"/>
  <rect x="30" y="68" width="160" height="8" rx="1" fill="#666666"/>
  
  <!-- Summary Section -->
  <rect x="30" y="100" width="80" height="10" rx="1" fill="#1a1a1a"/>
  <rect x="30" y="118" width="340" height="6" rx="1" fill="#e5e5e5"/>
  <rect x="30" y="130" width="320" height="6" rx="1" fill="#e5e5e5"/>
  <rect x="30" y="142" width="300" height="6" rx="1" fill="#e5e5e5"/>
  
  <!-- Experience Section -->
  <rect x="30" y="170" width="100" height="10" rx="1" fill="#1a1a1a"/>
  
  <rect x="30" y="190" width="150" height="8" rx="1" fill="#333333"/>
  <rect x="30" y="204" width="120" height="6" rx="1" fill="#888888"/>
  <rect x="30" y="218" width="340" height="6" rx="1" fill="#e5e5e5"/>
  <rect x="30" y="230" width="320" height="6" rx="1" fill="#e5e5e5"/>
  <rect x="30" y="242" width="280" height="6" rx="1" fill="#e5e5e5"/>
  
  <rect x="30" y="266" width="140" height="8" rx="1" fill="#333333"/>
  <rect x="30" y="280" width="100" height="6" rx="1" fill="#888888"/>
  <rect x="30" y="294" width="340" height="6" rx="1" fill="#e5e5e5"/>
  <rect x="30" y="306" width="300" height="6" rx="1" fill="#e5e5e5"/>
  
  <!-- Education Section -->
  <rect x="30" y="340" width="80" height="10" rx="1" fill="#1a1a1a"/>
  <rect x="30" y="360" width="180" height="8" rx="1" fill="#333333"/>
  <rect x="30" y="374" width="140" height="6" rx="1" fill="#888888"/>
  
  <!-- Skills Section -->
  <rect x="30" y="408" width="50" height="10" rx="1" fill="#1a1a1a"/>
  <rect x="30" y="428" width="60" height="20" rx="2" fill="#f0f0f0"/>
  <rect x="96" y="428" width="70" height="20" rx="2" fill="#f0f0f0"/>
  <rect x="172" y="428" width="50" height="20" rx="2" fill="#f0f0f0"/>
  <rect x="228" y="428" width="80" height="20" rx="2" fill="#f0f0f0"/>
  <rect x="30" y="454" width="65" height="20" rx="2" fill="#f0f0f0"/>
  <rect x="101" y="454" width="55" height="20" rx="2" fill="#f0f0f0"/>
  
  <!-- Label -->
  <text x="200" y="500" font-family="system-ui, sans-serif" font-size="11" fill="#999999" text-anchor="middle">ATS Simple Template</text>
</svg>
