<svg width="400" height="518" viewBox="0 0 400 518" fill="none" xmlns="http://www.w3.org/2000/svg">
  <!-- Background -->
  <rect width="400" height="518" fill="#ffffff"/>
  
  <!-- Left Accent Bar -->
  <rect width="6" height="518" fill="#2563eb"/>
  
  <!-- Header Section -->
  <rect x="30" y="30" width="220" height="20" rx="2" fill="#1a1a1a"/>
  <rect x="30" y="58" width="160" height="8" rx="1" fill="#2563eb"/>
  
  <!-- Contact Icons Row -->
  <circle cx="40" cy="86" r="8" fill="#f0f7ff"/>
  <circle cx="70" cy="86" r="8" fill="#f0f7ff"/>
  <circle cx="100" cy="86" r="8" fill="#f0f7ff"/>
  <circle cx="130" cy="86" r="8" fill="#f0f7ff"/>
  
  <!-- Summary Section -->
  <rect x="30" y="116" width="80" height="10" rx="1" fill="#2563eb"/>
  <rect x="30" y="134" width="340" height="6" rx="1" fill="#e5e5e5"/>
  <rect x="30" y="146" width="320" height="6" rx="1" fill="#e5e5e5"/>
  <rect x="30" y="158" width="280" height="6" rx="1" fill="#e5e5e5"/>
  
  <!-- Experience Section -->
  <rect x="30" y="186" width="100" height="10" rx="1" fill="#2563eb"/>
  
  <!-- Experience 1 -->
  <rect x="30" y="206" width="170" height="9" rx="1" fill="#1a1a1a"/>
  <rect x="30" y="221" width="130" height="7" rx="1" fill="#666666"/>
  <rect x="280" y="206" width="90" height="18" rx="9" fill="#f0f7ff"/>
  <rect x="30" y="238" width="340" height="6" rx="1" fill="#e5e5e5"/>
  <rect x="30" y="250" width="310" height="6" rx="1" fill="#e5e5e5"/>
  <rect x="30" y="262" width="280" height="6" rx="1" fill="#e5e5e5"/>
  
  <!-- Experience 2 -->
  <rect x="30" y="286" width="150" height="9" rx="1" fill="#1a1a1a"/>
  <rect x="30" y="301" width="110" height="7" rx="1" fill="#666666"/>
  <rect x="280" y="286" width="90" height="18" rx="9" fill="#f0f7ff"/>
  <rect x="30" y="318" width="340" height="6" rx="1" fill="#e5e5e5"/>
  <rect x="30" y="330" width="300" height="6" rx="1" fill="#e5e5e5"/>
  
  <!-- Skills Section -->
  <rect x="30" y="360" width="50" height="10" rx="1" fill="#2563eb"/>
  
  <!-- Skill Tags -->
  <rect x="30" y="380" width="60" height="22" rx="11" fill="#2563eb"/>
  <rect x="96" y="380" width="70" height="22" rx="11" fill="#2563eb"/>
  <rect x="172" y="380" width="55" height="22" rx="11" fill="#2563eb"/>
  <rect x="233" y="380" width="80" height="22" rx="11" fill="#2563eb"/>
  <rect x="30" y="408" width="65" height="22" rx="11" fill="#e5e5e5"/>
  <rect x="101" y="408" width="75" height="22" rx="11" fill="#e5e5e5"/>
  <rect x="182" y="408" width="50" height="22" rx="11" fill="#e5e5e5"/>
  
  <!-- Education Section -->
  <rect x="30" y="450" width="80" height="10" rx="1" fill="#2563eb"/>
  <rect x="30" y="470" width="200" height="9" rx="1" fill="#1a1a1a"/>
  <rect x="30" y="485" width="150" height="7" rx="1" fill="#666666"/>
  
  <!-- Label -->
  <text x="200" y="506" font-family="system-ui, sans-serif" font-size="11" fill="#999999" text-anchor="middle">Modern Template</text>
</svg>
